<?xml version="1.0" encoding="UTF-8" standalone="no"?>
<!-- Created with Inkscape (http://www.inkscape.org/) -->

<svg
   xmlns:dc="http://purl.org/dc/elements/1.1/"
   xmlns:cc="http://creativecommons.org/ns#"
   xmlns:rdf="http://www.w3.org/1999/02/22-rdf-syntax-ns#"
   xmlns:svg="http://www.w3.org/2000/svg"
   xmlns="http://www.w3.org/2000/svg"
   xmlns:sodipodi="http://sodipodi.sourceforge.net/DTD/sodipodi-0.dtd"
   xmlns:inkscape="http://www.inkscape.org/namespaces/inkscape"
   width="120"
   height="120"
   viewBox="0 0 31.749998 31.750001"
   id="svg99762"
   version="1.1"
   inkscape:version="0.91+devel+osxmenu r12911"
   sodipodi:docname="coverage.svg">
  <defs
     id="defs99764" />
  <sodipodi:namedview
     id="base"
     pagecolor="#ffffff"
     bordercolor="#666666"
     borderopacity="1.0"
     inkscape:pageopacity="0.0"
     inkscape:pageshadow="2"
     inkscape:zoom="2.8284271"
     inkscape:cx="83.994949"
     inkscape:cy="49.644669"
     inkscape:document-units="px"
     inkscape:current-layer="layer1"
     showgrid="false"
     units="px"
     inkscape:window-width="1280"
     inkscape:window-height="751"
     inkscape:window-x="0"
     inkscape:window-y="23"
     inkscape:window-maximized="0"
     inkscape:object-nodes="true"
     inkscape:snap-smooth-nodes="true"
     inkscape:snap-intersection-paths="false">
    <inkscape:grid
       type="xygrid"
       id="grid100313" />
  </sodipodi:namedview>
  <metadata
     id="metadata99767">
    <rdf:RDF>
      <cc:Work
         rdf:about="">
        <dc:format>image/svg+xml</dc:format>
        <dc:type
           rdf:resource="http://purl.org/dc/dcmitype/StillImage" />
        <dc:title />
      </cc:Work>
    </rdf:RDF>
  </metadata>
  <g
     inkscape:label="Layer 1"
     inkscape:groupmode="layer"
     id="layer1"
     transform="translate(0,-265.24996)">
    <path
       style="fill:#000000;stroke-width:1"
       d="m 26.550455,268.454 c -0.835033,-0.0187 -1.764532,0.27651 -2.663921,0.65836 -0.758253,0.32193 -1.484893,0.70958 -2.081527,1.0542 -1.351183,-0.79709 -2.870936,-1.33672 -4.491715,-1.54719 -0.397875,-0.0517 -0.970832,-0.0775 -1.544092,-0.0775 -0.573259,0 -1.146736,0.0258 -1.544609,0.0775 -2.234131,0.29012 -4.3956482,1.24479 -6.1520793,2.71714 -2.2445927,1.88155 -3.7523173,4.64376 -4.1320473,7.56905 -0.1033119,0.79589 -0.1033119,2.29333 0,3.08922 0.219524,1.69112 0.816861,3.32508 1.7151408,4.7687 -0.3582625,0.50453 -1.0301973,1.49675 -1.5740642,2.59881 -0.3854696,0.7811 -0.706098,1.60234 -0.7730794,2.36523 -0.033491,0.38144 -0.00319,0.75469 0.1441772,1.09347 0.1473682,0.33877 0.4225603,0.62906 0.7953002,0.80512 0.7101253,0.33544 1.5872727,0.14473 2.5858888,-0.29714 0.9986158,-0.44187 2.1459904,-1.17128 3.3961752,-2.1053 0.05475,-0.0409 0.112305,-0.0875 0.167432,-0.12919 1.189456,0.59977 2.474841,1.00817 3.75946,1.18184 0.752893,0.102 2.390459,0.10484 3.156397,0.005 2.23413,-0.29012 4.395646,-1.2448 6.152079,-2.71715 2.244592,-1.88155 3.752836,-4.64427 4.132564,-7.56956 0.103314,-0.79589 0.103314,-2.29333 0,-3.08922 -0.199626,-1.53783 -0.695595,-2.98462 -1.42627,-4.28294 0.657092,-0.92599 1.199712,-1.76834 1.588017,-2.49081 0.50032,-0.93086 0.811779,-1.62968 0.652156,-2.26962 -0.116493,-0.46704 -0.365921,-0.83905 -0.703315,-1.07229 -0.337394,-0.23324 -0.740553,-0.32656 -1.158068,-0.3359 z m -0.01757,0.79272 c 0.311261,0.007 0.551068,0.0754 0.724503,0.19534 0.173434,0.1199 0.303509,0.29295 0.382923,0.61133 0.03629,0.14548 -0.110389,0.82685 -0.580326,1.70119 -0.326406,0.60729 -0.785967,1.33134 -1.339454,2.127 -0.838506,-1.26556 -1.913597,-2.3615 -3.158463,-3.22823 0.498775,-0.27621 1.060645,-0.56486 1.635042,-0.80873 0.848108,-0.36007 1.713251,-0.61183 2.335775,-0.5979 z m -9.305892,0.28577 c 0.129379,0.003 0.359737,0.0449 0.763261,0.12661 0.700283,0.14182 1.642865,0.439 2.22467,0.70125 l 0.364319,0.16381 -0.156063,0.0822 c -0.0858,0.0452 -0.272989,0.16913 -0.415995,0.27543 -0.143005,0.1063 -0.388914,0.23422 -0.54622,0.28422 -0.732748,0.23283 -0.97282,0.60788 -0.748791,1.16789 0.04561,0.11401 0.07501,0.22728 0.06511,0.25218 -0.0099,0.0249 -0.141894,0.15445 -0.293005,0.28784 l -0.274919,0.24288 -0.404627,0 c -0.740571,0 -1.184751,0.22869 -1.446423,0.74517 -0.336098,0.66338 -0.161447,1.44526 0.367936,1.6459 l 0.151412,0.0574 -0.158646,0.16691 c -0.08723,0.0919 -0.225645,0.27518 -0.307475,0.40721 -0.08183,0.13202 -0.295434,0.36772 -0.474907,0.52348 -0.406205,0.35254 -0.702032,0.7418 -0.83354,1.09658 -0.150736,0.40665 -0.298438,1.8994 -0.219108,2.21485 0.171986,0.68386 0.900625,1.54359 1.607137,1.89653 0.544724,0.27213 0.771509,0.25758 1.76475,-0.11421 0.589785,-0.22077 0.683716,-0.22108 0.893485,0.0816 -0.441975,0.47631 -0.887841,0.95217 -1.341003,1.42265 -0.226842,0.23551 -0.455566,0.46845 -0.684196,0.70125 0.229648,0.14634 0.414424,0.34346 0.551904,0.56947 0.234747,-0.23907 0.469391,-0.47857 0.702283,-0.72036 0.408791,-0.42442 0.8124,-0.85238 1.212329,-1.28158 0.03447,0.0901 0.06531,0.19369 0.08216,0.28732 0.03091,0.17164 0.163083,0.54593 0.294039,0.83199 0.31834,0.69539 0.332392,0.8797 0.113172,1.50017 -0.170223,0.4818 -0.172577,0.49866 -0.105937,0.82217 0.03743,0.18168 0.218796,0.79137 0.403076,1.35496 0.391717,1.19801 0.438928,1.26266 0.888835,1.22576 0.338714,-0.0278 0.719698,-0.26983 1.213362,-0.77049 0.526582,-0.53405 0.956166,-1.14431 1.544092,-2.19522 0.592304,-1.05874 0.653415,-1.25223 0.603064,-1.90531 -0.0298,-0.38649 -0.02158,-0.43349 0.131258,-0.76016 0.08961,-0.19152 0.320908,-0.57036 0.514181,-0.84233 0.193271,-0.27198 0.407329,-0.57461 0.47594,-0.67231 0.197914,-0.28197 0.201224,-0.59441 0.01137,-1.07125 -0.08796,-0.22093 -0.146571,-0.43169 -0.130741,-0.46819 0.01583,-0.0365 0.148468,-0.1254 0.295073,-0.1974 0.298752,-0.14683 0.455822,-0.38655 0.56999,-0.87023 0.03545,-0.15019 0.07982,-0.27337 0.0987,-0.27337 0.08862,0 0.17395,0.9846 0.171047,1.97662 -0.0025,0.86698 -0.02515,1.19274 -0.121438,1.74253 -0.40913,2.33597 -1.441813,4.33436 -3.093351,5.9862 -1.844495,1.84484 -4.185492,2.94949 -6.765479,3.19205 l 0,-5.1e-4 c -1.82208,0.17131 -3.653416,-0.11828 -5.34696,-0.84543 -0.09872,-0.0424 -0.152606,-0.0684 -0.234611,-0.10439 1.285321,-1.02433 2.651906,-2.23398 4.031795,-3.54087 -0.227051,-0.15077 -0.409563,-0.35071 -0.542602,-0.5798 -1.469062,1.38949 -2.919237,2.66342 -4.260205,3.71398 -0.11424,-0.10024 -0.165912,-0.20527 -0.220659,-0.36742 -0.143044,-0.42366 -0.137407,-0.65204 0.02532,-1.0449 0.09439,-0.22789 0.141624,-0.45383 0.159163,-0.76171 0.01373,-0.2408 0.05861,-0.50279 0.09974,-0.58239 0.08885,-0.17186 0.315486,-0.34951 0.675411,-0.52968 0.35599,-0.17819 0.400907,-0.29412 0.391707,-1.00511 l -0.0072,-0.57826 0.235645,-0.48421 c 0.25836,-0.53093 0.187521,-1.49352 0.04392,-1.80971 -0.110965,-0.24435 -0.128194,0.003 -1.129647,-0.40359 -0.899205,-0.3651 -1.1801446,-0.0526 -1.2877771,-0.35863 -0.1092835,-0.31073 -0.390626,-0.58602 -0.9048543,-0.88419 -0.1973474,-0.11442 -0.5349092,-0.36906 -0.7498249,-0.56585 -0.3992801,-0.36561 -0.9081321,-0.65625 -1.1492839,-0.6563 -0.074107,0 -0.2497558,0.0346 -0.3901569,0.077 -0.1404012,0.0421 -0.2979656,0.0635 -0.3503663,0.047 -0.1391417,-0.0437 -0.4786937,-0.59657 -0.6128824,-0.99839 -0.1310722,-0.39249 -0.1564206,-0.89322 -0.057361,-1.1281 0.045389,-0.10763 0.2606834,-0.29177 0.6945312,-0.59324 0.6794924,-0.47216 0.785902,-0.59624 1.0862384,-1.26866 0.1378009,-0.30852 0.2273025,-0.42541 0.5069459,-0.66094 0.471469,-0.3971 0.8223009,-0.61397 1.1441163,-0.70797 0.3199712,-0.0935 0.39394,-0.18736 0.4790405,-0.60823 0.033626,-0.1663 0.093242,-0.31469 0.1322917,-0.32969 0.039053,-0.015 0.1600213,0.0428 0.2687175,0.12815 0.1086987,0.0854 0.2492049,0.17044 0.3121255,0.18914 0.1500105,0.0445 0.3749058,-0.0751 0.5798098,-0.30851 0.209927,-0.23916 0.211262,-0.41602 0.0078,-1.02371 -0.08579,-0.25616 -0.156063,-0.51734 -0.156063,-0.58084 0,-0.1772 0.126478,-0.32074 0.4408,-0.49816 0.262414,-0.14813 0.287321,-0.17702 0.287321,-0.34365 0,-0.16911 -0.02075,-0.1922 -0.286288,-0.32246 -0.157305,-0.0772 -0.28577,-0.15782 -0.28577,-0.17932 0,-0.0485 0.597216,-0.22614 1.010274,-0.30024 0.31131,-0.056 0.757576,-0.0752 0.757576,-0.0326 0,0.0127 -0.07026,0.2327 -0.156063,0.48886 -0.173709,0.5186 -0.19596,0.81213 -0.07493,0.98496 0.160016,0.2285 0.411724,0.14806 1.237133,-0.39636 0.62365,-0.41135 0.854403,-0.49488 1.612305,-0.58188 0.862909,-0.099 1.179284,-0.25357 1.810226,-0.88522 0.279087,-0.27941 0.459403,-0.50209 0.459403,-0.56689 0,-0.0709 0.02875,-0.10527 0.15813,-0.1018 z m 1.828829,4.94802 c 0.101216,-0.0139 0.214789,0.0433 0.436149,0.18552 0.168892,0.10847 0.485061,0.28138 0.702283,0.38395 0,0 0.506622,0.22121 1.11466,0.53692 0.37211,0.19587 0.4555,0.16893 1.133781,0.22893 0.656116,0.058 1.028208,0.19352 1.065568,0.38757 0.03399,0.1765 -0.04431,0.34403 -0.197404,0.42323 -0.178777,0.0924 -0.395178,0.0921 -0.755509,-5.2e-4 -0.143007,-0.0367 -0.514804,-0.0688 -0.826306,-0.0718 l -0.566374,-0.005 c -0.20053,-0.19614 -0.354086,-0.32659 -0.450618,-0.3974 l -0.313676,-0.45527 c -0.182528,-0.26492 -0.511669,-0.3057 -1.107426,-0.2713 -0.292649,0.0169 -0.646979,0.0672 -0.787549,0.11162 -0.140571,0.0444 -0.264356,-0.19298 -0.275436,-0.20408 -0.02958,-0.0296 0.474687,-0.62438 0.638721,-0.75344 0.07233,-0.0569 0.128406,-0.0904 0.189136,-0.0987 z m -5.124752,9.21597 -0.540019,1.3038 0.977718,0.40463 0.540019,-1.30328 z m 2.257227,0.70229 c -0.425178,0.003 -0.80721,0.26038 -0.969967,0.65319 -0.223755,0.53998 0.0326,1.15911 0.572575,1.38286 0.53998,0.22375 1.159109,-0.0326 1.382861,-0.57258 0.223755,-0.53998 -0.0326,-1.15911 -0.572575,-1.38286 -0.130851,-0.0542 -0.271256,-0.0816 -0.412894,-0.0806 z m 1.816943,0.98495 -0.540019,1.3038 0.977718,0.40514 0.540019,-1.3038 z m -11.8721437,2.08566 c 0.621095,0.85714 1.3517387,1.63377 2.179195,2.2934 0.4168691,0.33231 0.8593148,0.6373 1.3208498,0.91261 -1.1732588,0.86794 -2.2447663,1.53895 -3.1217732,1.92701 -0.9075738,0.40158 -1.5820366,0.46793 -1.9239137,0.30644 -0.2179508,-0.10295 -0.3296002,-0.22807 -0.4061767,-0.40411 -0.076577,-0.17604 -0.1077878,-0.41511 -0.082166,-0.70693 0.051244,-0.58365 0.3306427,-1.34884 0.6934978,-2.08411 0.4431027,-0.89788 0.9747461,-1.7134 1.340487,-2.24431 z"
       id="path100414"
       inkscape:connector-curvature="0"
       sodipodi:nodetypes="csccscssscssccsccccssscssscccccsccsccccccscssccssccccssccscsccsccsscscsssccccscsscsscccccccscccccccccscscccscssscscccccscscscssssccscccccccccccccssccccccccccccsscccccccccccsssssc" />
    <path
       style="fill:#000000;stroke-width:1"
       d="m 68.791659,269.21874 c -0.573259,0 -1.146735,0.0258 -1.544608,0.0775 -2.234131,0.29012 -4.395648,1.24479 -6.15208,2.71714 -2.244591,1.88155 -3.752317,4.64376 -4.132047,7.56905 -0.103312,0.79589 -0.103312,2.29333 0,3.08922 0.392975,3.02732 1.993699,5.87222 4.371826,7.768 1.674445,1.33481 3.760804,2.23183 5.844605,2.51354 0.752893,0.102 2.390459,0.10467 3.156396,0.005 2.23413,-0.29012 4.395647,-1.2448 6.15208,-2.71715 2.244592,-1.88155 3.752835,-4.64427 4.132564,-7.56956 0.103314,-0.79589 0.103314,-2.29333 0,-3.08922 -0.693291,-5.34084 -4.944804,-9.59277 -10.284644,-10.28619 -0.397874,-0.0517 -0.970832,-0.0775 -1.544092,-0.0775 z m 1.457793,0.99064 c 0.129379,0.003 0.359736,0.0449 0.76326,0.12661 0.700283,0.14182 1.642866,0.439 2.224671,0.70125 l 0.364319,0.16381 -0.156063,0.0822 c -0.0858,0.0452 -0.272989,0.16913 -0.415995,0.27543 -0.143005,0.1063 -0.388914,0.23422 -0.54622,0.28422 -0.732748,0.23283 -0.972821,0.60788 -0.748792,1.16789 0.04561,0.11401 0.07501,0.22728 0.06511,0.25218 -0.0099,0.0249 -0.141895,0.15445 -0.293006,0.28784 l -0.274918,0.24288 -0.404627,0 c -0.740571,0 -1.184752,0.22869 -1.446423,0.74517 -0.336098,0.66338 -0.161447,1.44526 0.367936,1.6459 l 0.151412,0.0574 -0.158647,0.16691 c -0.08723,0.0919 -0.225645,0.27518 -0.307475,0.40721 -0.08183,0.13202 -0.295434,0.36772 -0.474906,0.52348 -0.406206,0.35254 -0.702033,0.7418 -0.833541,1.09658 -0.150736,0.40665 -0.298438,1.8994 -0.219108,2.21485 0.171986,0.68386 0.900625,1.54358 1.607137,1.89652 0.544724,0.27213 0.77151,0.25759 1.76475,-0.1142 0.626974,-0.23469 0.69196,-0.22489 0.933277,0.13849 0.109677,0.16515 0.250479,0.36955 0.313159,0.45475 0.06268,0.0852 0.139632,0.29552 0.170532,0.46716 0.03091,0.17164 0.163083,0.54593 0.294039,0.83199 0.31834,0.69539 0.332391,0.8797 0.113171,1.50017 -0.170223,0.4818 -0.172576,0.49866 -0.105936,0.82217 0.03743,0.18168 0.218796,0.79137 0.403076,1.35496 0.391717,1.19801 0.438928,1.26266 0.888835,1.22576 0.338714,-0.0278 0.719698,-0.26984 1.213362,-0.7705 0.526582,-0.53405 0.956166,-1.1443 1.544092,-2.19521 0.592304,-1.05874 0.653414,-1.25223 0.603064,-1.90531 -0.0298,-0.38649 -0.02158,-0.43349 0.131258,-0.76016 0.08961,-0.19152 0.320908,-0.57036 0.514181,-0.84233 0.193271,-0.27198 0.407329,-0.57461 0.47594,-0.67231 0.197914,-0.28197 0.201225,-0.59441 0.01137,-1.07125 -0.08796,-0.22093 -0.146572,-0.43169 -0.130742,-0.46819 0.01583,-0.0365 0.148468,-0.1254 0.295073,-0.1974 0.298752,-0.14683 0.455823,-0.38655 0.569991,-0.87023 0.03545,-0.15019 0.07982,-0.27337 0.0987,-0.27337 0.08862,0 0.173949,0.9846 0.171048,1.97662 -0.0025,0.86698 -0.02515,1.19274 -0.121439,1.74253 -0.40913,2.33597 -1.441813,4.33436 -3.093351,5.9862 -1.844495,1.84484 -4.185492,2.94949 -6.765479,3.19205 l 0,-5.3e-4 c -1.82208,0.17131 -3.653416,-0.11827 -5.34696,-0.84542 -1.007161,-0.43244 -1.097498,-0.49708 -1.226281,-0.8785 -0.143044,-0.42366 -0.137409,-0.65204 0.02532,-1.0449 0.09439,-0.22789 0.141623,-0.45383 0.159162,-0.76171 0.01373,-0.2408 0.05861,-0.50279 0.09974,-0.58239 0.08885,-0.17186 0.315487,-0.34952 0.675412,-0.52969 0.35599,-0.17819 0.400908,-0.29411 0.391708,-1.0051 l -0.0072,-0.57826 0.235645,-0.48421 c 0.25836,-0.53093 0.187516,-1.49352 0.04392,-1.80971 -0.110965,-0.24435 -0.128194,0.003 -1.129647,-0.40359 -0.899205,-0.3651 -1.180142,-0.0526 -1.287774,-0.35864 -0.109284,-0.31073 -0.390629,-0.58601 -0.904857,-0.88418 -0.197347,-0.11442 -0.534908,-0.36907 -0.749824,-0.56586 -0.39928,-0.36561 -0.908131,-0.65624 -1.149283,-0.65629 -0.07411,0 -0.249756,0.0346 -0.390157,0.077 -0.140401,0.0421 -0.297966,0.0635 -0.350366,0.047 -0.139142,-0.0437 -0.478692,-0.59656 -0.612881,-0.99838 -0.131072,-0.39249 -0.156422,-0.89322 -0.05736,-1.1281 0.04539,-0.10763 0.260683,-0.29178 0.694531,-0.59325 0.679493,-0.47216 0.785903,-0.59623 1.086239,-1.26865 0.1378,-0.30852 0.227301,-0.42541 0.506943,-0.66094 0.471469,-0.3971 0.822302,-0.61397 1.144117,-0.70797 0.319971,-0.0935 0.393941,-0.18736 0.479041,-0.60823 0.03363,-0.1663 0.09324,-0.3147 0.132292,-0.3297 0.03905,-0.015 0.16002,0.0428 0.268716,0.12816 0.108699,0.0854 0.249206,0.17043 0.312126,0.18913 0.150011,0.0445 0.374907,-0.0751 0.579811,-0.3085 0.209926,-0.23916 0.21131,-0.41602 0.0078,-1.02371 -0.08579,-0.25616 -0.156061,-0.51735 -0.156061,-0.58085 0,-0.1772 0.126476,-0.32074 0.440798,-0.49816 0.262414,-0.14813 0.287321,-0.17702 0.287321,-0.34365 0,-0.16911 -0.02075,-0.1922 -0.286287,-0.32246 -0.157305,-0.0772 -0.285771,-0.15781 -0.285771,-0.17931 0,-0.0485 0.597217,-0.22614 1.010275,-0.30024 0.31131,-0.056 0.757576,-0.0752 0.757576,-0.0326 0,0.0127 -0.07026,0.2327 -0.156063,0.48886 -0.17371,0.5186 -0.19596,0.81212 -0.07493,0.98495 0.160016,0.2285 0.411725,0.14806 1.237134,-0.39636 0.623649,-0.41135 0.854403,-0.49487 1.612305,-0.58187 0.862909,-0.099 1.179284,-0.25357 1.810225,-0.88522 0.279087,-0.27941 0.459404,-0.50209 0.459404,-0.56689 0,-0.0709 0.02875,-0.10527 0.15813,-0.1018 z m 1.828829,4.94802 c 0.101216,-0.0139 0.214789,0.0433 0.436149,0.18552 0.168891,0.10847 0.48506,0.28138 0.702282,0.38395 0,0 0.506411,0.22115 1.114449,0.53686 0.37211,0.19587 0.455713,0.16899 1.133994,0.22899 0.656116,0.058 1.028208,0.19352 1.065568,0.38757 0.03399,0.1765 -0.04431,0.34403 -0.197404,0.42323 -0.178777,0.0924 -0.395179,0.0921 -0.75551,-5.3e-4 -0.143006,-0.0367 -0.514803,-0.0688 -0.826305,-0.0718 l -0.566374,-0.005 -0.152962,-0.1695 c -0.08264,-0.0913 -0.213949,-0.32067 -0.297657,-0.49248 l -0.313676,-0.45527 c -0.182529,-0.26492 -0.511669,-0.3057 -1.107426,-0.2713 -0.292649,0.0169 -0.646979,0.0672 -0.787549,0.11162 -0.140571,0.0444 -0.264355,0.0716 -0.275435,0.0605 -0.02958,-0.0296 0.474687,-0.62439 0.638721,-0.75345 0.07233,-0.0569 0.128406,-0.0909 0.189136,-0.0992 z m -14.270963,5.86166 c 0.04687,-0.0143 0.149313,0.15984 0.350367,0.50953 l 0.245462,0.42788 0.0181,0.61236 c 0.04242,1.43961 0.325334,2.17977 1.24747,3.26699 0.313143,0.36919 0.35487,0.48938 0.467154,1.34513 0.04464,0.34025 0.111863,0.70877 0.149862,0.81907 0.038,0.11035 0.06203,0.20051 0.05323,0.20051 -0.0088,0 -0.19242,-0.23956 -0.408243,-0.53278 -1.299062,-1.76491 -2.032434,-3.82875 -2.141472,-6.02651 -0.02008,-0.40489 -0.02879,-0.60789 0.0181,-0.62218 z"
       id="path101233"
       inkscape:connector-curvature="0"
       sodipodi:nodetypes="ssssssccssssssccccscscccssccccssccssccsscssssscccsccsscssccsscccccccscscscccscssscscccccscscscscssccssscccccccccccccsccssccccscsssssccc" />
    <path
       style="fill:none;fill-rule:evenodd;stroke:#000000;stroke-width:0.79374999;stroke-linecap:butt;stroke-linejoin:miter;stroke-miterlimit:4;stroke-dasharray:none;stroke-opacity:1"
       d="m 58.674963,287.03953 c 0,0 -3.38093,4.71366 -1.018168,5.82974 4.208009,1.9877 23.862825,-19.37432 23.079193,-22.51599 -0.783633,-3.14167 -6.495192,0.97276 -6.495192,0.97276"
       id="path101235"
       inkscape:connector-curvature="0"
       sodipodi:nodetypes="cszc" />
    <path
       style="color:#000000;font-style:normal;font-variant:normal;font-weight:normal;font-stretch:normal;font-size:medium;line-height:normal;font-family:sans-serif;text-indent:0;text-align:start;text-decoration:none;text-decoration-line:none;text-decoration-style:solid;text-decoration-color:#000000;letter-spacing:normal;word-spacing:normal;text-transform:none;direction:ltr;block-progression:tb;writing-mode:lr-tb;baseline-shift:baseline;text-anchor:start;white-space:normal;shape-padding:0;clip-rule:nonzero;display:inline;overflow:visible;visibility:visible;opacity:1;isolation:auto;mix-blend-mode:normal;color-interpolation:sRGB;color-interpolation-filters:linearRGB;solid-color:#000000;solid-opacity:1;fill:#cccccc;fill-opacity:1;fill-rule:nonzero;stroke:none;stroke-width:3.99999976;stroke-linecap:round;stroke-linejoin:round;stroke-miterlimit:4;stroke-dasharray:none;stroke-dashoffset:0;stroke-opacity:1;marker:none;color-rendering:auto;image-rendering:auto;shape-rendering:auto;text-rendering:auto;enable-background:accumulate"
       d="m 69.740344,284.05545 c -0.434389,-0.17993 -0.902769,-0.16396 -1.313446,-0.003 a 0.70562607,0.70562607 0 0 0 -0.378792,-0.37466 l -0.97777,-0.40501 a 0.70562607,0.70562607 0 0 0 -0.921858,0.38185 l -0.540005,1.30368 a 0.70562607,0.70562607 0 0 0 0.381845,0.92186 l 0.97777,0.40501 a 0.70562607,0.70562607 0 0 0 0.461861,0.0265 c 0.167804,0.43796 0.498372,0.81202 0.960366,1.00338 0.449415,0.18616 0.936198,0.16761 1.356713,-0.009 a 0.70562607,0.70562607 0 0 0 0.317356,0.26191 l 0.977774,0.40501 a 0.70562607,0.70562607 0 0 0 0.921853,-0.38185 l 0.540005,-1.30369 a 0.70562607,0.70562607 0 0 0 -0.381841,-0.92185 l -0.977774,-0.40501 a 0.70562607,0.70562607 0 0 0 -0.497818,-0.0153 c -0.180502,-0.38596 -0.486553,-0.71539 -0.906224,-0.88923 z m -0.540018,1.30371 c 0.187725,0.0778 0.268684,0.2732 0.190926,0.46092 -0.07775,0.18772 -0.273203,0.26869 -0.460928,0.19093 -0.187724,-0.0778 -0.268674,-0.27322 -0.190922,-0.46093 0.07776,-0.18772 0.2732,-0.26867 0.460924,-0.19092 z"
       id="path101237"
       inkscape:connector-curvature="0" />
    <path
       id="path101239"
       d="m 69.47034,284.70778 a 1.0583333,1.0583333 0 0 0 -1.38278,0.57276 1.0583333,1.0583333 0 0 0 0.572766,1.38278 1.0583333,1.0583333 0 0 0 1.38278,-0.57276 1.0583333,1.0583333 0 0 0 -0.572766,-1.38278 z m -2.670004,-0.78302 -0.540009,1.3037 0.97777,0.405 0.540008,-1.30369 -0.977769,-0.40501 z m 4.074048,1.68753 -0.540009,1.30369 0.977774,0.40501 0.540009,-1.30369 -0.977774,-0.40501 z"
       style="opacity:1;fill:#000000;fill-opacity:1;stroke:none;stroke-width:0.66145837;stroke-linecap:round;stroke-linejoin:round;stroke-miterlimit:4;stroke-dasharray:none;stroke-dashoffset:0;stroke-opacity:1;marker:none"
       inkscape:connector-curvature="0" />
  </g>
</svg>
