<?xml version="1.0" encoding="UTF-8" standalone="no"?>
<!-- Created with Inkscape (http://www.inkscape.org/) -->

<svg
   xmlns:dc="http://purl.org/dc/elements/1.1/"
   xmlns:cc="http://creativecommons.org/ns#"
   xmlns:rdf="http://www.w3.org/1999/02/22-rdf-syntax-ns#"
   xmlns:svg="http://www.w3.org/2000/svg"
   xmlns="http://www.w3.org/2000/svg"
   xmlns:sodipodi="http://sodipodi.sourceforge.net/DTD/sodipodi-0.dtd"
   xmlns:inkscape="http://www.inkscape.org/namespaces/inkscape"
   width="120"
   height="120"
   viewBox="0 0 31.749998 31.750001"
   id="svg99762"
   version="1.1"
   inkscape:version="0.91+devel+osxmenu r12911"
   sodipodi:docname="global.svg">
  <defs
     id="defs99764" />
  <sodipodi:namedview
     id="base"
     pagecolor="#ffffff"
     bordercolor="#666666"
     borderopacity="1.0"
     inkscape:pageopacity="0.0"
     inkscape:pageshadow="2"
     inkscape:zoom="2"
     inkscape:cx="10.02219"
     inkscape:cy="62.500008"
     inkscape:document-units="px"
     inkscape:current-layer="layer1"
     showgrid="false"
     units="px"
     inkscape:window-width="1280"
     inkscape:window-height="751"
     inkscape:window-x="32"
     inkscape:window-y="23"
     inkscape:window-maximized="0"
     inkscape:object-nodes="true"
     inkscape:snap-smooth-nodes="true"
     inkscape:snap-intersection-paths="false">
    <inkscape:grid
       type="xygrid"
       id="grid100313" />
  </sodipodi:namedview>
  <metadata
     id="metadata99767">
    <rdf:RDF>
      <cc:Work
         rdf:about="">
        <dc:format>image/svg+xml</dc:format>
        <dc:type
           rdf:resource="http://purl.org/dc/dcmitype/StillImage" />
        <dc:title />
      </cc:Work>
    </rdf:RDF>
  </metadata>
  <g
     inkscape:label="Layer 1"
     inkscape:groupmode="layer"
     id="layer1"
     transform="translate(0,-265.24996)">
    <path
       style="fill:#000000;stroke-width:1"
       d="m 52.916659,269.21874 c -0.573259,0 -1.146735,0.0258 -1.544608,0.0775 -2.234131,0.29012 -4.395646,1.24479 -6.152077,2.71714 -2.244591,1.88155 -3.752316,4.64376 -4.132046,7.56905 -0.103312,0.79589 -0.103312,2.29333 0,3.08922 0.392975,3.02732 1.993698,5.87222 4.371825,7.768 1.674442,1.33481 3.760801,2.23183 5.844602,2.51354 0.752893,0.102 2.390459,0.10467 3.156396,0.005 2.23413,-0.29012 4.395647,-1.2448 6.15208,-2.71715 2.244592,-1.88155 3.752835,-4.64427 4.132564,-7.56956 0.103314,-0.79589 0.103314,-2.29333 0,-3.08922 -0.693291,-5.34084 -4.944804,-9.59277 -10.284644,-10.28619 -0.397874,-0.0517 -0.970832,-0.0775 -1.544092,-0.0775 z m 1.457793,0.99064 c 0.129379,0.003 0.359736,0.0449 0.76326,0.12661 0.700283,0.14182 1.642866,0.439 2.224671,0.70125 l 0.364319,0.16381 -0.156063,0.0822 c -0.0858,0.0452 -0.272989,0.16913 -0.415995,0.27543 -0.143005,0.1063 -0.388914,0.23422 -0.54622,0.28422 -0.732748,0.23283 -0.972821,0.60788 -0.748792,1.16789 0.04561,0.11401 0.07501,0.22728 0.06511,0.25218 -0.0099,0.0249 -0.141895,0.15445 -0.293006,0.28784 l -0.274918,0.24288 -0.404627,0 c -0.740571,0 -1.184752,0.22869 -1.446423,0.74517 -0.336098,0.66338 -0.161447,1.44526 0.367936,1.6459 l 0.151412,0.0574 -0.158647,0.16691 c -0.08723,0.0919 -0.225645,0.27518 -0.307475,0.40721 -0.08183,0.13202 -0.295434,0.36772 -0.474906,0.52348 -0.406206,0.35254 -0.702033,0.7418 -0.833541,1.09658 -0.150736,0.40665 -0.298438,1.8994 -0.219108,2.21485 0.171986,0.68386 0.900625,1.54358 1.607137,1.89652 0.544724,0.27213 0.77151,0.25759 1.76475,-0.1142 0.626974,-0.23469 0.69196,-0.22489 0.933277,0.13849 0.109677,0.16515 0.250479,0.36955 0.313159,0.45475 0.06268,0.0852 0.139632,0.29552 0.170532,0.46716 0.03091,0.17164 0.163083,0.54593 0.294039,0.83199 0.31834,0.69539 0.332391,0.8797 0.113171,1.50017 -0.170223,0.4818 -0.172576,0.49866 -0.105936,0.82217 0.03743,0.18168 0.218796,0.79137 0.403076,1.35496 0.391717,1.19801 0.438928,1.26266 0.888835,1.22576 0.338714,-0.0278 0.719698,-0.26984 1.213362,-0.7705 0.526582,-0.53405 0.956166,-1.1443 1.544092,-2.19521 0.592304,-1.05874 0.653414,-1.25223 0.603064,-1.90531 -0.0298,-0.38649 -0.02158,-0.43349 0.131258,-0.76016 0.08961,-0.19152 0.320908,-0.57036 0.514181,-0.84233 0.193271,-0.27198 0.407329,-0.57461 0.47594,-0.67231 0.197914,-0.28197 0.201225,-0.59441 0.01137,-1.07125 -0.08796,-0.22093 -0.146572,-0.43169 -0.130742,-0.46819 0.01583,-0.0365 0.148468,-0.1254 0.295073,-0.1974 0.298752,-0.14683 0.455823,-0.38655 0.569991,-0.87023 0.03545,-0.15019 0.07982,-0.27337 0.0987,-0.27337 0.08862,0 0.173949,0.9846 0.171048,1.97662 -0.0025,0.86698 -0.02515,1.19274 -0.121439,1.74253 -0.40913,2.33597 -1.441813,4.33436 -3.093351,5.9862 -1.844495,1.84484 -4.185492,2.94949 -6.765479,3.19205 l 0,-5.3e-4 c -1.82208,0.17131 -3.653416,-0.11827 -5.34696,-0.84542 -1.007161,-0.43244 -1.097498,-0.49708 -1.226281,-0.8785 -0.143044,-0.42366 -0.137409,-0.65204 0.02532,-1.0449 0.09439,-0.22789 0.141623,-0.45383 0.159162,-0.76171 0.01373,-0.2408 0.05861,-0.50279 0.09974,-0.58239 0.08885,-0.17186 0.315487,-0.34952 0.675412,-0.52969 0.35599,-0.17819 0.400908,-0.29411 0.391708,-1.0051 l -0.0072,-0.57826 0.235645,-0.48421 c 0.25836,-0.53093 0.187516,-1.49352 0.04392,-1.80971 -0.110965,-0.24435 -0.128194,0.003 -1.129647,-0.40359 -0.899203,-0.3651 -1.180139,-0.0526 -1.287771,-0.35864 -0.109284,-0.31073 -0.390629,-0.58601 -0.904857,-0.88418 -0.197347,-0.11442 -0.534908,-0.36907 -0.749824,-0.56586 -0.39928,-0.36561 -0.908131,-0.65624 -1.149283,-0.65629 -0.07411,0 -0.249756,0.0346 -0.390157,0.077 -0.140401,0.0421 -0.297966,0.0635 -0.350366,0.047 -0.139142,-0.0437 -0.478692,-0.59656 -0.612881,-0.99838 -0.131072,-0.39249 -0.156422,-0.89322 -0.05736,-1.1281 0.04539,-0.10763 0.260683,-0.29178 0.694531,-0.59325 0.679493,-0.47216 0.785903,-0.59623 1.086239,-1.26865 0.1378,-0.30852 0.227301,-0.42541 0.506943,-0.66094 0.471469,-0.3971 0.822302,-0.61397 1.144117,-0.70797 0.319971,-0.0935 0.393941,-0.18736 0.479041,-0.60823 0.03363,-0.1663 0.09324,-0.3147 0.132292,-0.3297 0.03905,-0.015 0.16002,0.0428 0.268716,0.12816 0.108699,0.0854 0.249205,0.17043 0.312125,0.18913 0.150009,0.0445 0.374905,-0.0751 0.579809,-0.3085 0.209926,-0.23916 0.21131,-0.41602 0.0078,-1.02371 -0.08579,-0.25616 -0.156061,-0.51735 -0.156061,-0.58085 0,-0.1772 0.126476,-0.32074 0.440798,-0.49816 0.262414,-0.14813 0.287321,-0.17702 0.287321,-0.34365 0,-0.16911 -0.02075,-0.1922 -0.286287,-0.32246 -0.157305,-0.0772 -0.285771,-0.15781 -0.285771,-0.17931 0,-0.0485 0.597217,-0.22614 1.010275,-0.30024 0.31131,-0.056 0.757576,-0.0752 0.757576,-0.0326 0,0.0127 -0.07026,0.2327 -0.156063,0.48886 -0.17371,0.5186 -0.19596,0.81212 -0.07493,0.98495 0.160016,0.2285 0.411725,0.14806 1.237134,-0.39636 0.623649,-0.41135 0.854403,-0.49487 1.612305,-0.58187 0.862909,-0.099 1.179284,-0.25357 1.810225,-0.88522 0.279087,-0.27941 0.459404,-0.50209 0.459404,-0.56689 0,-0.0709 0.02875,-0.10527 0.15813,-0.1018 z m 1.828829,4.94802 c 0.101216,-0.0139 0.214789,0.0433 0.436149,0.18552 0.168891,0.10847 0.48506,0.28138 0.702282,0.38395 0,0 0.506411,0.22115 1.114449,0.53686 0.37211,0.19587 0.455713,0.16899 1.133994,0.22899 0.656116,0.058 1.028208,0.19352 1.065568,0.38757 0.03399,0.1765 -0.04431,0.34403 -0.197404,0.42323 -0.178777,0.0924 -0.395179,0.0921 -0.75551,-5.3e-4 -0.143006,-0.0367 -0.514803,-0.0688 -0.826305,-0.0718 l -0.566374,-0.005 -0.152962,-0.1695 c -0.08264,-0.0913 -0.08993,-0.30413 -0.297657,-0.49248 l -0.379822,-0.38912 c -0.239273,-0.24514 -0.445523,-0.37185 -1.04128,-0.33745 -0.292649,0.0169 -0.646979,0.0672 -0.787549,0.11162 -0.140571,0.0444 -0.264355,0.0716 -0.275435,0.0605 -0.02958,-0.0296 0.474687,-0.62439 0.638721,-0.75345 0.07233,-0.0569 0.128406,-0.0909 0.189136,-0.0992 z"
       id="path104715"
       inkscape:connector-curvature="0"
       sodipodi:nodetypes="ssssssccssssssccccscscccssccccssccssccsscssssscccsccsscssccsscccccccscscscccscssscscccccscscscscssccssscccccccccccccsccsscc" />
    <circle
       style="opacity:1;fill:#000000;fill-opacity:1;stroke:none;stroke-width:0.79375005;stroke-linecap:round;stroke-linejoin:round;stroke-miterlimit:4;stroke-dasharray:none;stroke-dashoffset:0;stroke-opacity:1;marker:none"
       id="circle104717"
       cx="47.492706"
       cy="285.75525"
       r="3.3072917" />
    <circle
       r="1.719792"
       cy="285.75525"
       cx="47.492706"
       id="circle104719"
       style="opacity:1;fill:#ffffff;fill-opacity:1;stroke:none;stroke-width:0.79374993;stroke-linecap:round;stroke-linejoin:round;stroke-miterlimit:4;stroke-dasharray:none;stroke-dashoffset:0;stroke-opacity:1;marker:none" />
    <circle
       r="3.3072917"
       cy="274.37811"
       cx="44.582291"
       id="circle104721"
       style="opacity:1;fill:#000000;fill-opacity:1;stroke:none;stroke-width:0.79375005;stroke-linecap:round;stroke-linejoin:round;stroke-miterlimit:4;stroke-dasharray:none;stroke-dashoffset:0;stroke-opacity:1;marker:none" />
    <circle
       style="opacity:1;fill:#ffffff;fill-opacity:1;stroke:none;stroke-width:0.79374993;stroke-linecap:round;stroke-linejoin:round;stroke-miterlimit:4;stroke-dasharray:none;stroke-dashoffset:0;stroke-opacity:1;marker:none"
       id="circle104723"
       cx="44.582291"
       cy="274.37811"
       r="1.719792" />
    <circle
       style="opacity:1;fill:#000000;fill-opacity:1;stroke:none;stroke-width:0.79375005;stroke-linecap:round;stroke-linejoin:round;stroke-miterlimit:4;stroke-dasharray:none;stroke-dashoffset:0;stroke-opacity:1;marker:none"
       id="circle104725"
       cx="54.901039"
       cy="276.49481"
       r="3.3072917" />
    <circle
       r="1.719792"
       cy="276.49481"
       cx="54.901039"
       id="circle104727"
       style="opacity:1;fill:#ffffff;fill-opacity:1;stroke:none;stroke-width:0.79374993;stroke-linecap:round;stroke-linejoin:round;stroke-miterlimit:4;stroke-dasharray:none;stroke-dashoffset:0;stroke-opacity:1;marker:none" />
    <circle
       r="2.3812499"
       cy="280.7348"
       cx="64.683968"
       id="circle104729"
       style="opacity:1;fill:#000000;fill-opacity:1;stroke:none;stroke-width:0.79375005;stroke-linecap:round;stroke-linejoin:round;stroke-miterlimit:4;stroke-dasharray:none;stroke-dashoffset:0;stroke-opacity:1;marker:none" />
    <circle
       r="1.0583333"
       style="opacity:1;fill:#ffffff;fill-opacity:1;stroke:none;stroke-width:0.79374999;stroke-linecap:round;stroke-linejoin:round;stroke-miterlimit:4;stroke-dasharray:none;stroke-dashoffset:0;stroke-opacity:1;marker:none"
       id="circle104731"
       cx="64.683968"
       cy="280.7348" />
    <circle
       r="3.3072917"
       cy="285.75525"
       cx="47.492706"
       id="circle104740"
       style="opacity:1;fill:#000000;fill-opacity:1;stroke:none;stroke-width:0.79375005;stroke-linecap:round;stroke-linejoin:round;stroke-miterlimit:4;stroke-dasharray:none;stroke-dashoffset:0;stroke-opacity:1;marker:none" />
    <circle
       style="opacity:1;fill:#ffffff;fill-opacity:1;stroke:none;stroke-width:0.79374993;stroke-linecap:round;stroke-linejoin:round;stroke-miterlimit:4;stroke-dasharray:none;stroke-dashoffset:0;stroke-opacity:1;marker:none"
       id="circle104742"
       cx="47.492706"
       cy="285.75525"
       r="1.719792" />
    <circle
       style="opacity:1;fill:#000000;fill-opacity:1;stroke:none;stroke-width:0.79375005;stroke-linecap:round;stroke-linejoin:round;stroke-miterlimit:4;stroke-dasharray:none;stroke-dashoffset:0;stroke-opacity:1;marker:none"
       id="circle105863"
       cx="59.002083"
       cy="271.33539"
       r="2.3812499" />
    <circle
       cy="271.33539"
       cx="59.002083"
       id="circle105865"
       style="opacity:1;fill:#ffffff;fill-opacity:1;stroke:none;stroke-width:0.79374999;stroke-linecap:round;stroke-linejoin:round;stroke-miterlimit:4;stroke-dasharray:none;stroke-dashoffset:0;stroke-opacity:1;marker:none"
       r="1.0583333" />
    <path
       style="fill:#000000;stroke-width:1"
       d="m 21.166639,269.21852 a 2.3812499,2.3812499 0 0 0 -1.931149,0.99217 c -0.831081,-0.31033 -1.704415,-0.53247 -2.610177,-0.65008 -0.397878,-0.0517 -0.970834,-0.0775 -1.544093,-0.0775 -0.573261,-2e-5 -1.146734,0.0258 -1.54461,0.0775 -1.907431,0.24771 -3.7610773,0.98125 -5.355746,2.10634 a 3.3072916,3.3072916 0 0 0 -1.4340197,-0.33177 3.3072916,3.3072916 0 0 0 -3.3072937,3.30729 3.3072916,3.3072916 0 0 0 0.6940172,2.02367 c -0.4381714,1.01222 -0.7388545,2.08499 -0.881082,3.18069 -0.1033126,0.79589 -0.1033158,2.29331 -1.5e-6,3.08921 0.3929756,3.02733 1.9936952,5.87221 4.3718283,7.76801 1.6744383,1.33479 3.7608044,2.23183 5.8446034,2.51354 0.75289,0.10198 2.390461,0.10483 3.156397,0.005 2.23413,-0.29012 4.395642,-1.24482 6.15208,-2.71715 2.130569,-1.78599 3.595527,-4.36642 4.063834,-7.12566 a 2.3812499,2.3812499 0 0 0 0.0072,2.8e-4 2.3812499,2.3812499 0 0 0 2.381253,-2.38125 2.3812499,2.3812499 0 0 0 -2.381248,-2.38123 2.3812499,2.3812499 0 0 0 -0.165855,0.006 c -0.547159,-2.292 -1.758062,-4.3302 -3.418396,-5.89938 a 2.3812499,2.3812499 0 0 0 0.283705,-1.12498 2.3812499,2.3812499 0 0 0 -2.381252,-2.38126 z m -4.627627,1.25521 c 0.129391,0.003 0.359735,0.0449 0.763261,0.1266 0.470978,0.0954 1.045651,0.26277 1.552357,0.44079 a 2.3812499,2.3812499 0 0 0 -0.06925,0.55865 2.3812499,2.3812499 0 0 0 0.05168,0.47953 c -0.02016,0.008 -0.04595,0.0223 -0.06419,0.0277 -0.732744,0.23283 -0.972825,0.60787 -0.748795,1.16788 0.0456,0.11402 0.07501,0.22729 0.06512,0.25219 -0.0033,0.008 -0.03576,0.0407 -0.06199,0.0682 a 3.3072916,3.3072916 0 0 0 -0.961699,-0.14366 3.3072916,3.3072916 0 0 0 -3.307288,3.3073 3.3072916,3.3072916 0 0 0 0.650603,1.96318 c -0.148553,0.42995 -0.291154,1.882 -0.212906,2.19315 0.171985,0.68386 0.900623,1.54357 1.607136,1.89652 0.544727,0.27213 0.77151,0.25758 1.764752,-0.11421 0.626967,-0.23469 0.691944,-0.22491 0.933277,0.13851 0.109679,0.16514 0.250472,0.36953 0.313156,0.45473 0.06268,0.0852 0.139629,0.29552 0.170535,0.46716 0.03091,0.17165 0.163085,0.54594 0.294044,0.832 0.318337,0.69539 0.332395,0.87969 0.11317,1.50015 -0.170222,0.48181 -0.172576,0.49867 -0.105937,0.82219 0.03744,0.18168 0.218796,0.79136 0.403077,1.35494 0.391716,1.19801 0.438923,1.26267 0.888836,1.22578 0.338713,-0.0278 0.719694,-0.26986 1.213359,-0.77051 0.526585,-0.53404 0.956168,-1.1443 1.544094,-2.1952 0.592305,-1.05874 0.653412,-1.25224 0.603067,-1.90531 -0.0298,-0.3865 -0.02158,-0.4335 0.131255,-0.76016 0.08961,-0.19153 0.320908,-0.57037 0.514182,-0.84233 0.158821,-0.2235 0.296538,-0.41826 0.391188,-0.55242 a 2.3812499,2.3812499 0 0 0 0.975651,0.73587 c -0.411172,2.3286 -1.442756,4.32135 -3.090248,5.96915 -1.844497,1.84484 -4.185493,2.94948 -6.765482,3.19205 l 0,-5.2e-4 c -1.82208,0.17131 -3.653413,-0.11827 -5.34696,-0.84542 -1.0071603,-0.43245 -1.0974978,-0.49709 -1.2262808,-0.87851 -0.1430443,-0.42366 -0.1374083,-0.65204 0.02532,-1.0449 0.03641,-0.088 0.06394,-0.17698 0.08733,-0.26922 a 3.3072916,3.3072916 0 0 0 0.023,10e-4 3.3072916,3.3072916 0 0 0 3.3072868,-3.3073 3.3072916,3.3072916 0 0 0 -3.3072898,-3.30729 3.3072916,3.3072916 0 0 0 -1.0288807,0.16846 c -0.1466616,-0.23216 -0.4044015,-0.45081 -0.8051168,-0.68316 -0.1973456,-0.11442 -0.534911,-0.36907 -0.7498233,-0.56586 -0.3992819,-0.36561 -0.9081363,-0.65624 -1.1492876,-0.65629 -0.074123,-4e-5 -0.2497481,0.0346 -0.3901798,0.077 -0.140377,0.0421 -0.2979943,0.0635 -0.3503967,0.047 -0.1391272,-0.0437 -0.4786956,-0.59657 -0.612881,-0.99839 -0.1310783,-0.3925 -0.1564243,-0.89322 -0.057361,-1.1281 0.045377,-0.10766 0.2606796,-0.29179 0.6945283,-0.59325 0.3328925,-0.2313 0.5274262,-0.37917 0.6754082,-0.54882 a 3.3072916,3.3072916 0 0 0 0.8635173,0.11888 3.3072916,3.3072916 0 0 0 3.3072929,-3.3073 3.3072916,3.3072916 0 0 0 -0.4258158,-1.6154 c 0.06345,-0.10335 0.1804345,-0.20336 0.3813728,-0.31678 0.262427,-0.1481 0.28732,-0.17703 0.28732,-0.34365 -6e-6,-0.16911 -0.02075,-0.1922 -0.286285,-0.32246 -0.1573043,-0.0772 -0.2857738,-0.15781 -0.2857708,-0.17931 3e-6,-0.0485 0.5972088,-0.22616 1.0102748,-0.30024 0.311312,-0.056 0.757572,-0.0752 0.757573,-0.0326 -5e-5,0.0127 -0.07026,0.2327 -0.156059,0.48886 -0.173713,0.51859 -0.195961,0.81212 -0.07493,0.98495 0.160013,0.2285 0.411725,0.14806 1.237132,-0.39636 0.623648,-0.41135 0.854403,-0.49488 1.612293,-0.58189 0.862914,-0.099 1.17929,-0.25357 1.81023,-0.88522 0.279086,-0.27941 0.459402,-0.5021 0.459404,-0.56689 -10e-7,-0.0709 0.02874,-0.10531 0.158142,-0.10177 z m 4.627627,0.0677 a 1.0583333,1.0583333 0 0 1 1.058329,1.05832 1.0583333,1.0583333 0 0 1 -1.058331,1.05834 1.0583333,1.0583333 0 0 1 -1.058333,-1.05833 1.0583333,1.0583333 0 0 1 1.058335,-1.05833 z m -14.4197934,2.38124 a 1.719792,1.719792 0 0 1 1.7197916,1.71979 1.719792,1.719792 0 0 1 -1.71979,1.71981 1.719792,1.719792 0 0 1 -1.7197966,-1.71982 1.719792,1.719792 0 0 1 1.719795,-1.71978 z m 10.3187474,2.11666 a 1.719792,1.719792 0 0 1 1.719796,1.71981 1.719792,1.719792 0 0 1 -1.719794,1.71978 1.719792,1.719792 0 0 1 -1.719792,-1.71979 1.719792,1.719792 0 0 1 1.71979,-1.7198 z m 3.283003,1.35444 c 0.0972,0.0484 0.166906,0.0796 0.272339,0.13437 0.372109,0.19587 0.4555,0.16893 1.133781,0.22893 0.656117,0.058 1.028207,0.19352 1.065567,0.38757 0.03399,0.17649 -0.04431,0.34403 -0.197404,0.42323 -0.178743,0.0924 -0.395152,0.0921 -0.755509,-5.1e-4 -0.142983,-0.0367 -0.514803,-0.0688 -0.826307,-0.0718 l -0.566373,-0.005 -0.152961,-0.1695 -5.18e-4,-5.1e-4 a 3.3072916,3.3072916 0 0 0 0.05168,-0.56121 3.3072916,3.3072916 0 0 0 -0.02429,-0.36534 z m 6.499866,3.54709 a 1.0583333,1.0583333 0 0 1 1.058333,1.05832 1.0583333,1.0583333 0 0 1 -1.058336,1.05834 1.0583333,1.0583333 0 0 1 -1.058333,-1.05834 1.0583333,1.0583333 0 0 1 1.058336,-1.05832 z m -17.1911988,4.35891 a 1.719792,1.719792 0 0 1 1.7197928,1.71978 1.719792,1.719792 0 0 1 -1.7197948,1.71979 1.719792,1.719792 0 0 1 -1.7197932,-1.7198 1.719792,1.719792 0 0 1 1.7197952,-1.71977 z"
       id="path105867"
       inkscape:connector-curvature="0" />
  </g>
</svg>
