<?xml version="1.0" encoding="UTF-8" standalone="no"?>
<!-- Created with Inkscape (http://www.inkscape.org/) -->

<svg
   xmlns:dc="http://purl.org/dc/elements/1.1/"
   xmlns:cc="http://creativecommons.org/ns#"
   xmlns:rdf="http://www.w3.org/1999/02/22-rdf-syntax-ns#"
   xmlns:svg="http://www.w3.org/2000/svg"
   xmlns="http://www.w3.org/2000/svg"
   xmlns:sodipodi="http://sodipodi.sourceforge.net/DTD/sodipodi-0.dtd"
   xmlns:inkscape="http://www.inkscape.org/namespaces/inkscape"
   width="120"
   height="120"
   viewBox="0 0 31.749998 31.750001"
   id="svg99762"
   version="1.1"
   inkscape:version="0.91+devel+osxmenu r12911"
   sodipodi:docname="mosaic.svg">
  <defs
     id="defs99764" />
  <sodipodi:namedview
     id="base"
     pagecolor="#ffffff"
     bordercolor="#666666"
     borderopacity="1.0"
     inkscape:pageopacity="0.0"
     inkscape:pageshadow="2"
     inkscape:zoom="2"
     inkscape:cx="103.36742"
     inkscape:cy="79.571076"
     inkscape:document-units="px"
     inkscape:current-layer="layer1"
     showgrid="false"
     units="px"
     inkscape:window-width="1280"
     inkscape:window-height="751"
     inkscape:window-x="0"
     inkscape:window-y="23"
     inkscape:window-maximized="0"
     inkscape:object-nodes="true"
     inkscape:snap-smooth-nodes="true"
     inkscape:snap-intersection-paths="false">
    <inkscape:grid
       type="xygrid"
       id="grid100313" />
  </sodipodi:namedview>
  <metadata
     id="metadata99767">
    <rdf:RDF>
      <cc:Work
         rdf:about="">
        <dc:format>image/svg+xml</dc:format>
        <dc:type
           rdf:resource="http://purl.org/dc/dcmitype/StillImage" />
        <dc:title />
      </cc:Work>
    </rdf:RDF>
  </metadata>
  <g
     inkscape:label="Layer 1"
     inkscape:groupmode="layer"
     id="layer1"
     transform="translate(0,-265.24996)">
    <path
       sodipodi:nodetypes="ssssssccssssssccccscscccssccccssccssccsscssssscccsccsscssccsscccccccscscscccscssscscccccscscscscssccssscccccccccccccsccsscc"
       inkscape:connector-curvature="0"
       id="path102725"
       d="m 58.208326,269.21874 c -0.573259,0 -1.146735,0.0258 -1.544608,0.0775 -2.234131,0.29012 -4.395647,1.24479 -6.152079,2.71714 -2.244591,1.88155 -3.752317,4.64376 -4.132047,7.56905 -0.103312,0.79589 -0.103312,2.29333 0,3.08922 0.392975,3.02732 1.993699,5.87222 4.371826,7.768 1.674444,1.33481 3.760803,2.23183 5.844604,2.51354 0.752893,0.102 2.390459,0.10467 3.156396,0.005 2.23413,-0.29012 4.395647,-1.2448 6.15208,-2.71715 2.244592,-1.88155 3.752835,-4.64427 4.132564,-7.56956 0.103314,-0.79589 0.103314,-2.29333 0,-3.08922 -0.693291,-5.34084 -4.944804,-9.59277 -10.284644,-10.28619 -0.397874,-0.0517 -0.970832,-0.0775 -1.544092,-0.0775 z m 1.457793,0.99064 c 0.129379,0.003 0.359736,0.0449 0.76326,0.12661 0.700283,0.14182 1.642866,0.439 2.224671,0.70125 l 0.364319,0.16381 -0.156063,0.0822 c -0.0858,0.0452 -0.272989,0.16913 -0.415995,0.27543 -0.143005,0.1063 -0.388914,0.23422 -0.54622,0.28422 -0.732748,0.23283 -0.972821,0.60788 -0.748792,1.16789 0.04561,0.11401 0.07501,0.22728 0.06511,0.25218 -0.0099,0.0249 -0.141895,0.15445 -0.293006,0.28784 l -0.274918,0.24288 -0.404627,0 c -0.740571,0 -1.184752,0.22869 -1.446423,0.74517 -0.336098,0.66338 -0.161447,1.44526 0.367936,1.6459 l 0.151412,0.0574 -0.158647,0.16691 c -0.08723,0.0919 -0.225645,0.27518 -0.307475,0.40721 -0.08183,0.13202 -0.295434,0.36772 -0.474906,0.52348 -0.406206,0.35254 -0.702033,0.7418 -0.833541,1.09658 -0.150736,0.40665 -0.298438,1.8994 -0.219108,2.21485 0.171986,0.68386 0.900625,1.54358 1.607137,1.89652 0.544724,0.27213 0.77151,0.25759 1.76475,-0.1142 0.626974,-0.23469 0.69196,-0.22489 0.933277,0.13849 0.109677,0.16515 0.250479,0.36955 0.313159,0.45475 0.06268,0.0852 0.139632,0.29552 0.170532,0.46716 0.03091,0.17164 0.163083,0.54593 0.294039,0.83199 0.31834,0.69539 0.332391,0.8797 0.113171,1.50017 -0.170223,0.4818 -0.172576,0.49866 -0.105936,0.82217 0.03743,0.18168 0.218796,0.79137 0.403076,1.35496 0.391717,1.19801 0.438928,1.26266 0.888835,1.22576 0.338714,-0.0278 0.719698,-0.26984 1.213362,-0.7705 0.526582,-0.53405 0.956166,-1.1443 1.544092,-2.19521 0.592304,-1.05874 0.653414,-1.25223 0.603064,-1.90531 -0.0298,-0.38649 -0.02158,-0.43349 0.131258,-0.76016 0.08961,-0.19152 0.320908,-0.57036 0.514181,-0.84233 0.193271,-0.27198 0.407329,-0.57461 0.47594,-0.67231 0.197914,-0.28197 0.201225,-0.59441 0.01137,-1.07125 -0.08796,-0.22093 -0.146572,-0.43169 -0.130742,-0.46819 0.01583,-0.0365 0.148468,-0.1254 0.295073,-0.1974 0.298752,-0.14683 0.455823,-0.38655 0.569991,-0.87023 0.03545,-0.15019 0.07982,-0.27337 0.0987,-0.27337 0.08862,0 0.173949,0.9846 0.171048,1.97662 -0.0025,0.86698 -0.02515,1.19274 -0.121439,1.74253 -0.40913,2.33597 -1.441813,4.33436 -3.093351,5.9862 -1.844495,1.84484 -4.185492,2.94949 -6.765479,3.19205 l 0,-5.3e-4 c -1.82208,0.17131 -3.653416,-0.11827 -5.34696,-0.84542 -1.007161,-0.43244 -1.097498,-0.49708 -1.226281,-0.8785 -0.143044,-0.42366 -0.137409,-0.65204 0.02532,-1.0449 0.09439,-0.22789 0.141623,-0.45383 0.159162,-0.76171 0.01373,-0.2408 0.05861,-0.50279 0.09974,-0.58239 0.08885,-0.17186 0.315487,-0.34952 0.675412,-0.52969 0.35599,-0.17819 0.400908,-0.29411 0.391708,-1.0051 l -0.0072,-0.57826 0.235645,-0.48421 c 0.25836,-0.53093 0.187516,-1.49352 0.04392,-1.80971 -0.110965,-0.24435 -0.128194,0.003 -1.129647,-0.40359 -0.899204,-0.3651 -1.180141,-0.0526 -1.287773,-0.35864 -0.109284,-0.31073 -0.390629,-0.58601 -0.904857,-0.88418 -0.197347,-0.11442 -0.534908,-0.36907 -0.749824,-0.56586 -0.39928,-0.36561 -0.908131,-0.65624 -1.149283,-0.65629 -0.07411,0 -0.249756,0.0346 -0.390157,0.077 -0.140401,0.0421 -0.297966,0.0635 -0.350366,0.047 -0.139142,-0.0437 -0.478692,-0.59656 -0.612881,-0.99838 -0.131072,-0.39249 -0.156422,-0.89322 -0.05736,-1.1281 0.04539,-0.10763 0.260683,-0.29178 0.694531,-0.59325 0.679493,-0.47216 0.785903,-0.59623 1.086239,-1.26865 0.1378,-0.30852 0.227301,-0.42541 0.506943,-0.66094 0.471469,-0.3971 0.822302,-0.61397 1.144117,-0.70797 0.319971,-0.0935 0.393941,-0.18736 0.479041,-0.60823 0.03363,-0.1663 0.09324,-0.3147 0.132292,-0.3297 0.03905,-0.015 0.16002,0.0428 0.268716,0.12816 0.108699,0.0854 0.249206,0.17043 0.312126,0.18913 0.15001,0.0445 0.374906,-0.0751 0.57981,-0.3085 0.209926,-0.23916 0.21131,-0.41602 0.0078,-1.02371 -0.08579,-0.25616 -0.156061,-0.51735 -0.156061,-0.58085 0,-0.1772 0.126476,-0.32074 0.440798,-0.49816 0.262414,-0.14813 0.287321,-0.17702 0.287321,-0.34365 0,-0.16911 -0.02075,-0.1922 -0.286287,-0.32246 -0.157305,-0.0772 -0.285771,-0.15781 -0.285771,-0.17931 0,-0.0485 0.597217,-0.22614 1.010275,-0.30024 0.31131,-0.056 0.757576,-0.0752 0.757576,-0.0326 0,0.0127 -0.07026,0.2327 -0.156063,0.48886 -0.17371,0.5186 -0.19596,0.81212 -0.07493,0.98495 0.160016,0.2285 0.411725,0.14806 1.237134,-0.39636 0.623649,-0.41135 0.854403,-0.49487 1.612305,-0.58187 0.862909,-0.099 1.179284,-0.25357 1.810225,-0.88522 0.279087,-0.27941 0.459404,-0.50209 0.459404,-0.56689 0,-0.0709 0.02875,-0.10527 0.15813,-0.1018 z m 1.828829,4.94802 c 0.101216,-0.0139 0.214789,0.0433 0.436149,0.18552 0.168891,0.10847 0.48506,0.28138 0.702282,0.38395 0,0 0.506411,0.22115 1.114449,0.53686 0.37211,0.19587 0.455713,0.16899 1.133994,0.22899 0.656116,0.058 1.028208,0.19352 1.065568,0.38757 0.03399,0.1765 -0.04431,0.34403 -0.197404,0.42323 -0.178777,0.0924 -0.395179,0.0921 -0.75551,-5.3e-4 -0.143006,-0.0367 -0.514803,-0.0688 -0.826305,-0.0718 l -0.566374,-0.005 -0.152962,-0.1695 c -0.08264,-0.0913 -0.08993,-0.30413 -0.297657,-0.49248 l -0.379822,-0.38912 c -0.239273,-0.24514 -0.445523,-0.37185 -1.04128,-0.33745 -0.292649,0.0169 -0.646979,0.0672 -0.787549,0.11162 -0.140571,0.0444 -0.264355,0.0716 -0.275435,0.0605 -0.02958,-0.0296 0.474687,-0.62439 0.638721,-0.75345 0.07233,-0.0569 0.128406,-0.0909 0.189136,-0.0992 z"
       style="fill:#000000;stroke-width:1" />
    <rect
       style="opacity:1;fill:#ffffff;fill-opacity:1;stroke:none;stroke-width:0.79374999;stroke-linecap:butt;stroke-linejoin:miter;stroke-miterlimit:4;stroke-dasharray:none;stroke-dashoffset:0;stroke-opacity:1;marker:none"
       id="rect102727"
       width="5.2916665"
       height="5.2916665"
       x="43.92083"
       y="266.57281" />
    <rect
       y="267.63116"
       x="44.979164"
       height="3.1750002"
       width="3.1750002"
       id="rect102729"
       style="opacity:1;fill:#000000;fill-opacity:1;stroke:none;stroke-width:0.79374999;stroke-linecap:butt;stroke-linejoin:miter;stroke-miterlimit:4;stroke-dasharray:none;stroke-dashoffset:0;stroke-opacity:1;marker:none" />
    <rect
       y="266.57281"
       x="48.154163"
       height="5.2916665"
       width="5.2916665"
       id="rect102731"
       style="opacity:1;fill:#ffffff;fill-opacity:1;stroke:none;stroke-width:0.79374999;stroke-linecap:butt;stroke-linejoin:miter;stroke-miterlimit:4;stroke-dasharray:none;stroke-dashoffset:0;stroke-opacity:1;marker:none" />
    <rect
       style="opacity:1;fill:#000000;fill-opacity:1;stroke:none;stroke-width:0.79374999;stroke-linecap:butt;stroke-linejoin:miter;stroke-miterlimit:4;stroke-dasharray:none;stroke-dashoffset:0;stroke-opacity:1;marker:none"
       id="rect102733"
       width="3.1750002"
       height="3.1750002"
       x="49.212494"
       y="267.63116" />
    <rect
       y="270.80615"
       x="43.92083"
       height="5.2916665"
       width="5.2916665"
       id="rect102735"
       style="opacity:1;fill:#ffffff;fill-opacity:1;stroke:none;stroke-width:0.79374999;stroke-linecap:butt;stroke-linejoin:miter;stroke-miterlimit:4;stroke-dasharray:none;stroke-dashoffset:0;stroke-opacity:1;marker:none" />
    <rect
       style="opacity:1;fill:#000000;fill-opacity:1;stroke:none;stroke-width:0.79374999;stroke-linecap:butt;stroke-linejoin:miter;stroke-miterlimit:4;stroke-dasharray:none;stroke-dashoffset:0;stroke-opacity:1;marker:none"
       id="rect102737"
       width="3.1750002"
       height="3.1750002"
       x="44.979164"
       y="271.8645" />
    <rect
       style="opacity:1;fill:#ffffff;fill-opacity:1;stroke:none;stroke-width:0.79374999;stroke-linecap:butt;stroke-linejoin:miter;stroke-miterlimit:4;stroke-dasharray:none;stroke-dashoffset:0;stroke-opacity:1;marker:none"
       id="rect102739"
       width="5.2916665"
       height="5.2916665"
       x="48.154163"
       y="270.80615" />
    <rect
       y="271.8645"
       x="49.212494"
       height="3.1750002"
       width="3.1750002"
       id="rect102741"
       style="opacity:1;fill:#000000;fill-opacity:1;stroke:none;stroke-width:0.79374999;stroke-linecap:butt;stroke-linejoin:miter;stroke-miterlimit:4;stroke-dasharray:none;stroke-dashoffset:0;stroke-opacity:1;marker:none" />
    <rect
       y="270.80612"
       x="52.387493"
       height="5.2916665"
       width="5.2916665"
       id="rect102743"
       style="opacity:1;fill:#ffffff;fill-opacity:1;stroke:none;stroke-width:0.79374999;stroke-linecap:butt;stroke-linejoin:miter;stroke-miterlimit:4;stroke-dasharray:none;stroke-dashoffset:0;stroke-opacity:1;marker:none" />
    <rect
       style="opacity:1;fill:#000000;fill-opacity:1;stroke:none;stroke-width:0.79374999;stroke-linecap:butt;stroke-linejoin:miter;stroke-miterlimit:4;stroke-dasharray:none;stroke-dashoffset:0;stroke-opacity:1;marker:none"
       id="rect102745"
       width="3.1750002"
       height="3.1750002"
       x="53.445824"
       y="271.86447" />
    <rect
       y="275.03949"
       x="48.154163"
       height="5.2916665"
       width="5.2916665"
       id="rect102747"
       style="opacity:1;fill:#ffffff;fill-opacity:1;stroke:none;stroke-width:0.79374999;stroke-linecap:butt;stroke-linejoin:miter;stroke-miterlimit:4;stroke-dasharray:none;stroke-dashoffset:0;stroke-opacity:1;marker:none" />
    <rect
       style="opacity:1;fill:#000000;fill-opacity:1;stroke:none;stroke-width:0.79374999;stroke-linecap:butt;stroke-linejoin:miter;stroke-miterlimit:4;stroke-dasharray:none;stroke-dashoffset:0;stroke-opacity:1;marker:none"
       id="rect102749"
       width="3.1750002"
       height="3.1750002"
       x="49.212494"
       y="276.09784" />
    <rect
       style="opacity:1;fill:#ffffff;fill-opacity:1;stroke:none;stroke-width:0.79374999;stroke-linecap:butt;stroke-linejoin:miter;stroke-miterlimit:4;stroke-dasharray:none;stroke-dashoffset:0;stroke-opacity:1;marker:none"
       id="rect102751"
       width="5.2916665"
       height="5.2916665"
       x="52.387493"
       y="275.03949" />
    <rect
       y="276.09784"
       x="53.445824"
       height="3.1750002"
       width="3.1750002"
       id="rect102753"
       style="opacity:1;fill:#000000;fill-opacity:1;stroke:none;stroke-width:0.79374999;stroke-linecap:butt;stroke-linejoin:miter;stroke-miterlimit:4;stroke-dasharray:none;stroke-dashoffset:0;stroke-opacity:1;marker:none" />
    <path
       style="fill:#000000;stroke-width:3.77952766"
       d="M 64 14.998047 L 64 15 C 61.833352 15 59.665881 15.097567 58.162109 15.292969 C 53.990104 15.834737 49.88645 16.992255 46 18.693359 L 46 23.222656 C 46.536462 23.084633 47.083579 22.955205 47.574219 22.867188 C 48.750827 22.655534 50.4375 22.583133 50.4375 22.744141 C 50.4375 22.792141 50.171951 23.623633 49.847656 24.591797 C 49.191115 26.55186 49.107021 27.661237 49.564453 28.314453 C 50.169238 29.178075 51.120578 28.874057 54.240234 26.816406 C 56.597337 25.261698 57.469473 24.946006 60.333984 24.617188 C 63.595377 24.243014 64.791119 23.658823 67.175781 21.271484 C 68.230594 20.215447 68.912109 19.37382 68.912109 19.128906 C 68.912109 18.860938 69.02077 18.731026 69.509766 18.744141 C 69.998753 18.755479 70.869401 18.913831 72.394531 19.222656 C 75.04127 19.758669 78.603786 20.881866 80.802734 21.873047 L 82.179688 22.492188 L 81.589844 22.802734 C 81.26556 22.973569 80.558069 23.441986 80.017578 23.84375 C 79.477087 24.245514 78.547667 24.728992 77.953125 24.917969 C 75.183684 25.797956 74.276323 27.215458 75.123047 29.332031 C 75.295431 29.762935 75.406558 30.191046 75.369141 30.285156 C 75.331723 30.379266 74.832847 30.868896 74.261719 31.373047 L 73.222656 32.291016 L 71.693359 32.291016 C 68.894355 32.291016 67.215555 33.155371 66.226562 35.107422 C 64.956271 37.614685 65.61637 40.569801 67.617188 41.328125 L 68.189453 41.544922 L 67.589844 42.175781 C 67.260156 42.52312 66.737013 43.215833 66.427734 43.714844 C 66.118456 44.213817 65.311132 45.10466 64.632812 45.693359 C 63.498494 46.677817 62.596628 47.738182 62 48.765625 L 62 51 L 62 61.013672 C 63.206086 62.806264 64.979144 64.50305 66.728516 65.376953 C 68.787315 66.405476 69.644459 66.350503 73.398438 64.945312 C 75.768103 64.058295 76.013717 64.095345 76.925781 65.46875 C 77.340309 66.092939 77.872474 66.865484 78.109375 67.1875 C 78.346276 67.509516 78.637119 68.304407 78.753906 68.953125 C 78.870731 69.601843 79.370283 71.016485 79.865234 72.097656 C 81.068409 74.725902 81.121517 75.422495 80.292969 77.767578 C 79.649606 79.588555 79.64071 79.652285 79.892578 80.875 C 80.034046 81.561665 80.719524 83.86599 81.416016 85.996094 C 82.896521 90.524006 83.074955 90.768371 84.775391 90.628906 C 86.05557 90.523835 87.495508 89.609055 89.361328 87.716797 C 91.351556 85.69834 92.975187 83.391865 95.197266 79.419922 C 97.435899 75.418385 97.666862 74.687084 97.476562 72.21875 C 97.363933 70.758 97.395001 70.580361 97.972656 69.345703 C 98.31134 68.621848 99.185531 67.190028 99.916016 66.162109 C 100.64649 65.134153 101.45553 63.990354 101.71484 63.621094 C 102.46287 62.55538 102.47538 61.374496 101.75781 59.572266 C 101.42537 58.737255 101.20384 57.940687 101.26367 57.802734 C 101.3235 57.664782 101.82481 57.328767 102.37891 57.056641 C 103.50805 56.501693 104.1017 55.59566 104.5332 53.767578 C 104.66719 53.199931 104.83489 52.734375 104.90625 52.734375 C 105.24119 52.734375 105.5637 56.455711 105.55273 60.205078 C 105.54329 63.481853 105.45768 64.713069 105.09375 66.791016 C 103.54743 75.619879 99.644381 83.172841 93.402344 89.416016 C 86.431028 96.388639 77.583163 100.56371 67.832031 101.48047 L 67.832031 101.47852 C 60.945433 102.12599 54.023843 101.03149 47.623047 98.283203 C 43.816454 96.648784 43.47502 96.404478 42.988281 94.962891 C 42.447643 93.361656 42.468946 92.498497 43.083984 91.013672 C 43.440734 90.152355 43.619258 89.298407 43.685547 88.134766 C 43.73744 87.224655 43.907048 86.234444 44.0625 85.933594 C 44.398311 85.284044 45.254888 84.612598 46.615234 83.931641 C 47.960705 83.258167 48.130475 82.820019 48.095703 80.132812 L 48.068359 77.947266 L 48.958984 76.117188 C 49.935463 74.110523 49.667725 70.472393 49.125 69.277344 C 48.705605 68.353816 48.640488 69.288671 44.855469 67.751953 C 43.289436 67.116103 42.236297 67.027592 41.498047 67 L 26 67 L 26 58.34375 C 25.402802 57.589219 24.640162 56.223144 24.275391 55.130859 C 23.801773 53.712629 23.699011 51.930547 24.017578 51 L 19.835938 51 C 19.620287 52.049754 19.431031 53.106346 19.292969 54.169922 C 18.902498 57.17801 18.902498 62.837615 19.292969 65.845703 C 20.778229 77.287543 26.828205 88.039925 35.816406 95.205078 C 42.145013 100.25003 50.030467 103.64035 57.90625 104.70508 C 60.75183 105.09059 66.941057 105.09936 69.835938 104.72266 C 78.27989 103.62614 86.449404 100.01791 93.087891 94.453125 C 101.57139 87.341755 107.27184 76.899964 108.70703 65.84375 C 109.09751 62.835662 109.09751 57.176057 108.70703 54.167969 C 106.08672 33.982116 90.01801 17.911816 69.835938 15.291016 C 68.332162 15.095614 66.166652 14.998047 64 14.998047 z M 76.421875 37.443359 L 76.421875 37.445312 C 76.804424 37.392777 77.233676 37.60896 78.070312 38.146484 C 78.708641 38.55645 79.903609 39.20999 80.724609 39.597656 C 80.724609 39.597656 82.6394 40.433718 84.9375 41.626953 C 86.3439 42.367249 86.659078 42.265416 89.222656 42.492188 C 91.702469 42.7114 93.108797 43.223614 93.25 43.957031 C 93.378466 44.624118 93.082529 45.257302 92.503906 45.556641 C 91.828214 45.905869 91.010318 45.904785 89.648438 45.554688 C 89.107942 45.415979 87.702721 45.294542 86.525391 45.283203 L 84.384766 45.263672 L 83.806641 44.623047 C 83.4943 44.277976 83.466747 43.473593 82.681641 42.761719 L 81.246094 41.291016 C 80.341755 40.364502 79.562227 39.885609 77.310547 40.015625 C 76.204472 40.079499 74.865269 40.269613 74.333984 40.4375 C 73.802692 40.605311 73.334846 40.707968 73.292969 40.666016 C 73.18117 40.554142 75.08706 38.306145 75.707031 37.818359 C 75.980404 37.603304 76.192348 37.474729 76.421875 37.443359 z "
       transform="matrix(0.26458333,0,0,0.26458333,0,265.24996)"
       id="path102725-2" />
    <rect
       y="270.54135"
       x="3.9687488"
       height="2.6458333"
       width="2.6458333"
       id="rect102729-9"
       style="opacity:1;fill:#000000;fill-opacity:1;stroke:none;stroke-width:0.79374999;stroke-linecap:butt;stroke-linejoin:miter;stroke-miterlimit:4;stroke-dasharray:none;stroke-dashoffset:0;stroke-opacity:1;marker:none" />
    <rect
       style="opacity:1;fill:#000000;fill-opacity:1;stroke:none;stroke-width:0.79374999;stroke-linecap:butt;stroke-linejoin:miter;stroke-miterlimit:4;stroke-dasharray:none;stroke-dashoffset:0;stroke-opacity:1;marker:none"
       id="rect102761"
       width="2.6458333"
       height="2.6458333"
       x="8.2020779"
       y="270.54135" />
    <rect
       style="opacity:1;fill:#000000;fill-opacity:1;stroke:none;stroke-width:0.79374999;stroke-linecap:butt;stroke-linejoin:miter;stroke-miterlimit:4;stroke-dasharray:none;stroke-dashoffset:0;stroke-opacity:1;marker:none"
       id="rect102763"
       width="2.6458333"
       height="2.6458333"
       x="3.9687488"
       y="274.77469" />
    <rect
       y="274.77469"
       x="8.2020779"
       height="2.6458333"
       width="2.6458333"
       id="rect102765"
       style="opacity:1;fill:#000000;fill-opacity:1;stroke:none;stroke-width:0.79374999;stroke-linecap:butt;stroke-linejoin:miter;stroke-miterlimit:4;stroke-dasharray:none;stroke-dashoffset:0;stroke-opacity:1;marker:none" />
    <rect
       style="opacity:1;fill:#000000;fill-opacity:1;stroke:none;stroke-width:0.79374999;stroke-linecap:butt;stroke-linejoin:miter;stroke-miterlimit:4;stroke-dasharray:none;stroke-dashoffset:0;stroke-opacity:1;marker:none"
       id="rect102767"
       width="2.6458333"
       height="2.6458333"
       x="8.2020779"
       y="279.00803" />
    <rect
       style="opacity:1;fill:#000000;fill-opacity:1;stroke:none;stroke-width:0.79374999;stroke-linecap:butt;stroke-linejoin:miter;stroke-miterlimit:4;stroke-dasharray:none;stroke-dashoffset:0;stroke-opacity:1;marker:none"
       id="rect102769"
       width="2.6458333"
       height="2.6458333"
       x="12.435412"
       y="274.77469" />
    <rect
       y="279.00803"
       x="12.435412"
       height="2.6458333"
       width="2.6458333"
       id="rect102771"
       style="opacity:1;fill:#000000;fill-opacity:1;stroke:none;stroke-width:0.79374999;stroke-linecap:butt;stroke-linejoin:miter;stroke-miterlimit:4;stroke-dasharray:none;stroke-dashoffset:0;stroke-opacity:1;marker:none" />
  </g>
</svg>
